# xmcd
#
# Track frame offsets: 
#        150
#        16415
#        31710
#
# Disc length: 648 seconds
#
# Revision: 0
# Processed by: cddbd v1.5.2PL0 Copyright (c) Steve Scherf et al.
# Submitted via: ExactAudioCopy v0.95a5
#
DISCID=15028603
DTITLE=Bomshel - Bomshel Stomp
DYEAR=2007
DGENRE=Country
TTITLE0=Bomshel Stomp
TTITLE1=It Was An Absolutely Finger Lickin', Grits And Chicken Country
TTITLE1=Music Love Song
TTITLE2=Ain't My Day To Care
EXTD=
EXTT0=
EXTT1=
EXTT2=
PLAYORDER=
